<?xml version="1.0" encoding="utf-8"?>
<!-- Generator: Adobe Illustrator 24.0.1, SVG Export Plug-In . SVG Version: 6.00 Build 0)  -->
<svg version="1.1" id="Layer_1" xmlns="http://www.w3.org/2000/svg" xmlns:xlink="http://www.w3.org/1999/xlink" x="0px" y="0px"
	 viewBox="0 0 165 74" style="enable-background:new 0 0 165 74;" xml:space="preserve">
<style type="text/css">
	.st0{enable-background:new    ;}
	.st1{fill:#FFB612;}
</style>
<g>
	<g>
		<path d="M45.5,53.9v8.9H11.8c0.4-3.4,1.5-6.6,3.3-9.6c1.8-3,5.4-7,10.8-12c4.3-4,7-6.8,8-8.2c1.3-2,2-3.9,2-5.9
			c0-2.1-0.6-3.8-1.7-4.9c-1.2-1.2-2.7-1.7-4.8-1.7c-2,0-3.6,0.6-4.8,1.8c-1.2,1.2-1.9,3.2-2.1,6l-9.6-1c0.6-5.3,2.4-9.1,5.4-11.4
			c3-2.3,6.8-3.5,11.3-3.5c4.9,0,8.8,1.3,11.7,4c2.8,2.7,4.2,6,4.2,9.9c0,2.3-0.4,4.4-1.2,6.4c-0.8,2-2.1,4.2-3.8,6.4
			c-1.2,1.5-3.3,3.6-6.3,6.4c-3,2.8-5,4.6-5.8,5.5c-0.8,0.9-1.5,1.8-2,2.7H45.5z"/>
		<path d="M68.2,12.5c4.9,0,8.6,1.7,11.4,5.2c3.3,4.1,4.9,10.9,4.9,20.4c0,9.5-1.6,16.3-4.9,20.4c-2.7,3.4-6.5,5.1-11.3,5.1
			c-4.9,0-8.8-1.9-11.8-5.6c-3-3.7-4.5-10.4-4.5-20c0-9.4,1.6-16.2,4.9-20.4C59.6,14.2,63.4,12.5,68.2,12.5z M68.2,20.5
			c-1.2,0-2.2,0.4-3.1,1.1c-0.9,0.7-1.6,2.1-2.1,4c-0.7,2.5-1,6.7-1,12.5s0.3,9.9,0.9,12.1c0.6,2.2,1.3,3.7,2.2,4.4
			c0.9,0.7,1.9,1.1,3.1,1.1s2.2-0.4,3.1-1.1c0.9-0.7,1.6-2.1,2.1-4c0.7-2.5,1-6.6,1-12.5s-0.3-9.9-0.9-12.1
			c-0.6-2.2-1.3-3.7-2.2-4.4C70.4,20.9,69.4,20.5,68.2,20.5z"/>
		<path d="M91,25.1c0-4.5,1-7.8,3-10c2-2.2,4.6-3.2,8-3.2c3.5,0,6.2,1.1,8.2,3.2s3,5.5,3,10c0,4.5-1,7.8-3,10c-2,2.2-4.6,3.2-8,3.2
			c-3.5,0-6.2-1.1-8.2-3.2S91,29.6,91,25.1z M98.5,25c0,3.3,0.4,5.4,1.1,6.6c0.6,0.8,1.4,1.2,2.4,1.2c1,0,1.8-0.4,2.4-1.2
			c0.7-1.1,1.1-3.3,1.1-6.6c0-3.3-0.4-5.4-1.1-6.5c-0.6-0.8-1.4-1.3-2.4-1.3c-1,0-1.8,0.4-2.4,1.2C98.8,19.6,98.5,21.8,98.5,25z
			 M109.3,64.8h-7.1l26.7-52.9h6.9L109.3,64.8z M124.8,51.6c0-4.5,1-7.8,3-10c2-2.2,4.7-3.2,8.1-3.2c3.4,0,6.1,1.1,8.1,3.2
			c2,2.2,3,5.5,3,10c0,4.5-1,7.8-3,10c-2,2.2-4.6,3.2-8,3.2c-3.5,0-6.2-1.1-8.2-3.2C125.8,59.5,124.8,56.1,124.8,51.6z M132.3,51.6
			c0,3.3,0.4,5.4,1.1,6.5c0.6,0.8,1.4,1.3,2.4,1.3c1,0,1.8-0.4,2.4-1.2c0.8-1.1,1.1-3.3,1.1-6.6s-0.4-5.4-1.1-6.6
			c-0.6-0.8-1.4-1.2-2.4-1.2s-1.8,0.4-2.4,1.2C132.6,46.1,132.3,48.3,132.3,51.6z"/>
	</g>
	<g class="st0">
		<g>
			<path class="st1" d="M42.7,51.2v8.9H9.1c0.4-3.4,1.5-6.6,3.3-9.6c1.8-3,5.4-7,10.8-12c4.3-4,7-6.8,8-8.2c1.3-2,2-3.9,2-5.9
				c0-2.1-0.6-3.8-1.7-4.9c-1.2-1.2-2.7-1.7-4.8-1.7c-2,0-3.6,0.6-4.8,1.8c-1.2,1.2-1.9,3.2-2.1,6l-9.6-1c0.6-5.3,2.4-9.1,5.4-11.4
				c3-2.3,6.8-3.5,11.3-3.5c4.9,0,8.8,1.3,11.7,4c2.8,2.7,4.2,6,4.2,9.9c0,2.3-0.4,4.4-1.2,6.4c-0.8,2-2.1,4.2-3.8,6.4
				c-1.2,1.5-3.3,3.6-6.3,6.4c-3,2.8-5,4.6-5.8,5.5c-0.8,0.9-1.5,1.8-2,2.7H42.7z"/>
		</g>
		<g>
			<path class="st1" d="M65.5,9.8c4.9,0,8.6,1.7,11.4,5.2c3.3,4.1,4.9,10.9,4.9,20.4c0,9.5-1.6,16.3-4.9,20.4
				c-2.7,3.4-6.5,5.1-11.3,5.1c-4.9,0-8.8-1.9-11.8-5.6c-3-3.7-4.5-10.4-4.5-20c0-9.4,1.6-16.2,4.9-20.4
				C56.8,11.5,60.6,9.8,65.5,9.8z M65.5,17.7c-1.2,0-2.2,0.4-3.1,1.1c-0.9,0.7-1.6,2.1-2.1,4c-0.7,2.5-1,6.7-1,12.5
				s0.3,9.9,0.9,12.1c0.6,2.2,1.3,3.7,2.2,4.4c0.9,0.7,1.9,1.1,3.1,1.1s2.2-0.4,3.1-1.1c0.9-0.7,1.6-2.1,2.1-4c0.7-2.5,1-6.6,1-12.5
				s-0.3-9.9-0.9-12.1c-0.6-2.2-1.3-3.7-2.2-4.4C67.7,18.1,66.6,17.7,65.5,17.7z"/>
		</g>
		<g>
			<path class="st1" d="M88.2,22.4c0-4.5,1-7.8,3-10c2-2.2,4.6-3.2,8-3.2c3.5,0,6.2,1.1,8.2,3.2s3,5.5,3,10c0,4.5-1,7.8-3,10
				c-2,2.2-4.6,3.2-8,3.2c-3.5,0-6.2-1.1-8.2-3.2S88.2,26.9,88.2,22.4z M95.7,22.3c0,3.3,0.4,5.4,1.1,6.6c0.6,0.8,1.4,1.2,2.4,1.2
				c1,0,1.8-0.4,2.4-1.2c0.7-1.1,1.1-3.3,1.1-6.6c0-3.3-0.4-5.4-1.1-6.5c-0.6-0.8-1.4-1.3-2.4-1.3c-1,0-1.8,0.4-2.4,1.2
				C96.1,16.8,95.7,19,95.7,22.3z M106.5,62h-7.1l26.7-52.9h6.9L106.5,62z M122,48.9c0-4.5,1-7.8,3-10c2-2.2,4.7-3.2,8.1-3.2
				c3.4,0,6.1,1.1,8.1,3.2c2,2.2,3,5.5,3,10c0,4.5-1,7.9-3,10c-2,2.2-4.6,3.2-8,3.2c-3.5,0-6.2-1.1-8.2-3.2
				C123,56.7,122,53.4,122,48.9z M129.5,48.8c0,3.3,0.4,5.4,1.1,6.5c0.6,0.8,1.4,1.3,2.4,1.3c1,0,1.8-0.4,2.4-1.2
				c0.8-1.1,1.1-3.3,1.1-6.6c0-3.3-0.4-5.4-1.1-6.6c-0.6-0.8-1.4-1.2-2.4-1.2s-1.8,0.4-2.4,1.2C129.9,43.4,129.5,45.6,129.5,48.8z"
				/>
		</g>
	</g>
	<g>
		<g>
			<path d="M38.4,13.8c-2.8-2.7-6.7-4-11.7-4c-4.5,0-8.3,1.2-11.3,3.5c-0.9,0.7-1.6,1.5-2.3,2.4h26.9C39.6,15,39.1,14.4,38.4,13.8z"
				/>
		</g>
		<g>
			<path d="M37.6,36.6c1.8-2.2,3-4.4,3.8-6.4c0.3-0.6,0.5-1.3,0.6-2h-9.9c-0.3,0.7-0.7,1.4-1.2,2.1c-1,1.4-3.6,4.2-8,8.2
				c-0.9,0.9-1.8,1.7-2.6,2.5h13C35.4,39.2,36.7,37.7,37.6,36.6z"/>
		</g>
		<g>
			<path d="M42.7,60.1v-6.6H10.7c-0.9,2.1-1.5,4.3-1.7,6.6H42.7z"/>
		</g>
		<g>
			<path d="M76.8,15c-2.7-3.5-6.5-5.2-11.4-5.2s-8.6,1.7-11.3,5.1c-0.2,0.2-0.4,0.5-0.5,0.7h23.7C77.1,15.4,76.9,15.2,76.8,15z"/>
		</g>
		<g>
			<path d="M71.6,35.4c0,2.1,0,3.9-0.1,5.6h10c0.1-1.7,0.2-3.6,0.2-5.6c0-2.6-0.1-5-0.4-7.2h-9.9C71.6,30.2,71.6,32.6,71.6,35.4z"/>
		</g>
		<g>
			<path d="M59.4,28.2h-9.9c-0.2,2.2-0.4,4.5-0.4,7.1c0,2,0.1,3.9,0.2,5.7h10c-0.1-1.6-0.1-3.5-0.1-5.6
				C59.2,32.6,59.3,30.2,59.4,28.2z"/>
		</g>
		<g>
			<path d="M53.6,55.3c3,3.7,6.9,5.6,11.8,5.6c4.9,0,8.6-1.7,11.3-5.1c0.5-0.7,1-1.5,1.5-2.3H52.4C52.8,54.2,53.2,54.8,53.6,55.3z"
				/>
		</g>
		<g>
			<polygon points="126,9.1 122.8,15.6 129.7,15.6 132.9,9.1 			"/>
		</g>
		<g>
			<path d="M99.1,14.5c1,0,1.7,0.4,2.3,1.1h7.8c-0.5-1.3-1.1-2.4-1.9-3.3c-2-2.2-4.7-3.2-8.2-3.2c-3.4,0-6,1.1-8,3.2
				c-0.8,0.9-1.4,2-1.9,3.2h7.7C97.4,14.9,98.2,14.5,99.1,14.5z"/>
		</g>
		<g>
			<path d="M101.5,28.9c-0.6,0.8-1.4,1.2-2.4,1.2c-1,0-1.8-0.4-2.4-1.2c-0.1-0.2-0.2-0.4-0.3-0.7h-7.5c0.5,1.7,1.2,3.1,2.2,4.2
				c2,2.2,4.7,3.2,8.2,3.2c3.4,0,6-1.1,8-3.2c1-1.1,1.7-2.5,2.2-4.2h-7.7C101.8,28.4,101.7,28.7,101.5,28.9z"/>
		</g>
		<g>
			<path d="M133,35.6c-3.4,0-6.1,1.1-8.1,3.2c-0.6,0.6-1,1.3-1.4,2.1h19c-0.4-0.8-0.9-1.5-1.4-2.1C139.2,36.7,136.4,35.6,133,35.6z"
				/>
		</g>
		<g>
			<polygon points="110,41 117,41 123.4,28.2 116.4,28.2 			"/>
		</g>
		<g>
			<path d="M135.3,55.4c-0.5,0.8-1.3,1.2-2.4,1.2c-1,0-1.8-0.4-2.4-1.3c-0.3-0.4-0.5-1-0.7-1.8h-7.5c0.5,2.2,1.3,4,2.5,5.3
				c2,2.2,4.7,3.2,8.2,3.2c3.4,0,6-1.1,8-3.2c1.2-1.3,2-3.1,2.5-5.3H136C135.8,54.3,135.6,54.9,135.3,55.4z"/>
		</g>
		<g>
			<polygon points="99.3,62 106.5,62 110.7,53.5 103.6,53.5 			"/>
		</g>
	</g>
</g>
</svg>
