<svg xmlns="http://www.w3.org/2000/svg" width="267.25" height="155" viewBox="0 0 267.25 155">
  <g id="Group_1" data-name="Group 1" transform="translate(-221.375 -640.797)">
    <path id="Rectangle_4" data-name="Rectangle 4" d="M459,795.8H221.375v-9.815c.085,0,.167.013.252.013a9.075,9.075,0,0,0,0-18.149c-.085,0-.167.011-.252.013V756.552c.085,0,.167.013.252.013a9.074,9.074,0,0,0,0-18.148c-.085,0-.167.01-.252.013v-11.3c.084,0,.166.013.25.013a9.078,9.078,0,0,0,0-18.157c-.085,0-.166.011-.25.013V697.691c.084,0,.166.013.25.013a9.078,9.078,0,0,0,0-18.157c-.085,0-.166.011-.25.013V668.253c.084,0,.166.013.25.013a9.063,9.063,0,0,0,0-18.125c-.085,0-.166.01-.25.013V640.8H488.625v9.815c-.085,0-.167-.013-.252-.013a9.074,9.074,0,0,0,0,18.148c.085,0,.167-.01.252-.013v11.307c-.085,0-.167-.013-.252-.013a9.074,9.074,0,0,0,0,18.148c.085,0,.167-.01.252-.013v11.3c-.085,0-.166-.013-.25-.013a9.078,9.078,0,0,0,0,18.157c.085,0,.166-.011.25-.013V738.9c-.085,0-.166-.013-.25-.013a9.078,9.078,0,0,0,0,18.156c.085,0,.166-.01.25-.013v11.307c-.085,0-.166-.013-.25-.013a9.063,9.063,0,0,0,0,18.125c.085,0,.166-.011.25-.013V795.8Z" fill="#ffb612"/>
    <g id="Rounded_Rectangle_3" data-name="Rounded Rectangle 3" transform="translate(242 649.81)" fill="rgba(250,65,72,0)" stroke="#000" stroke-linejoin="round" stroke-width="2">
      <rect width="227" height="136" rx="4.88" stroke="none"/>
      <rect x="1" y="1" width="225" height="134" rx="3.88" fill="none"/>
    </g>
  </g>
</svg>
