<svg xmlns="http://www.w3.org/2000/svg" xmlns:xlink="http://www.w3.org/1999/xlink" width="109.75" height="58.767" viewBox="0 0 109.75 58.767">
  <defs>
    <clipPath id="clip-path">
      <path id="Shape_7_copy_2" data-name="Shape 7 copy 2" d="M23.236,58.589q-.459-.062-.906-.133c-.1-.016-.194-.033-.291-.05-.2-.033-.4-.066-.592-.1-.114-.021-.225-.044-.338-.066-.175-.034-.351-.067-.523-.1-.118-.025-.233-.052-.35-.078-.163-.036-.327-.071-.488-.109-.119-.028-.234-.058-.351-.087-.155-.038-.312-.076-.465-.116-.117-.031-.232-.064-.348-.1-.149-.041-.3-.081-.447-.124-.115-.033-.228-.069-.342-.1-.144-.044-.289-.086-.431-.132-.113-.036-.223-.074-.334-.111-.139-.046-.28-.092-.417-.14-.11-.038-.217-.079-.326-.118-.135-.049-.271-.1-.4-.148-.107-.041-.212-.084-.318-.125-.131-.052-.263-.1-.392-.156-.1-.043-.206-.088-.309-.132-.127-.054-.255-.108-.38-.163-.1-.045-.2-.092-.3-.139-.123-.057-.247-.113-.368-.171-.1-.047-.195-.1-.292-.145-.119-.059-.239-.117-.356-.178-.1-.049-.189-.1-.284-.151-.115-.061-.232-.122-.345-.185-.093-.052-.184-.1-.276-.157-.112-.064-.224-.127-.334-.191-.091-.054-.179-.109-.268-.163-.108-.066-.217-.131-.323-.2-.088-.056-.173-.113-.26-.169-.1-.068-.209-.135-.312-.2-.085-.057-.168-.116-.252-.175-.1-.07-.2-.139-.3-.209-.083-.059-.163-.12-.245-.18-.1-.071-.194-.142-.29-.215s-.159-.124-.238-.186-.187-.146-.279-.22-.154-.128-.231-.191-.18-.149-.268-.224-.149-.131-.224-.2-.173-.152-.257-.228-.145-.135-.217-.2-.166-.154-.246-.232-.141-.139-.211-.208-.158-.156-.236-.235-.137-.143-.2-.214-.151-.158-.225-.238-.133-.146-.2-.22-.144-.16-.215-.241-.128-.15-.192-.226-.138-.161-.2-.242-.125-.154-.187-.231-.131-.162-.194-.244-.121-.158-.181-.237-.124-.163-.184-.245-.117-.162-.175-.243-.117-.163-.175-.245-.114-.166-.17-.249-.111-.163-.165-.245-.11-.17-.164-.255-.1-.163-.155-.244-.107-.174-.159-.262-.1-.162-.146-.243-.1-.179-.154-.268-.092-.161-.137-.242-.1-.183-.149-.274-.086-.159-.128-.239-.1-.187-.144-.281c-.04-.079-.08-.158-.119-.237-.047-.1-.093-.192-.139-.288-.037-.078-.075-.155-.111-.233-.046-.1-.09-.2-.134-.295-.034-.076-.069-.153-.1-.23-.044-.1-.086-.2-.129-.3-.032-.075-.064-.15-.095-.225-.042-.1-.083-.206-.124-.308-.029-.074-.058-.147-.087-.221-.041-.105-.08-.21-.119-.316-.027-.072-.053-.143-.079-.215-.039-.107-.076-.215-.114-.323-.024-.07-.049-.14-.072-.209-.037-.11-.073-.22-.109-.33-.022-.068-.044-.135-.065-.2-.036-.112-.07-.225-.1-.337-.02-.065-.04-.131-.059-.2-.034-.115-.067-.23-.1-.345-.018-.063-.036-.126-.053-.189-.032-.117-.063-.235-.093-.352-.016-.06-.032-.121-.047-.181-.03-.12-.059-.24-.088-.36l-.041-.173Q1.039,39.364,1,39.18c-.012-.055-.024-.109-.036-.164q-.04-.188-.078-.375c-.01-.052-.021-.1-.031-.155Q.816,38.3.782,38.1c-.009-.049-.018-.1-.027-.145q-.035-.2-.067-.39c-.008-.045-.015-.091-.022-.136q-.032-.2-.061-.4l-.019-.126q-.029-.2-.056-.4l-.015-.115q-.026-.206-.05-.411c0-.035-.008-.07-.012-.1q-.024-.21-.044-.418c0-.031-.006-.063-.009-.094q-.021-.213-.038-.424l-.007-.083q-.018-.216-.032-.43l-.005-.072Q.3,34.135.291,33.917l0-.061q-.011-.222-.02-.442l0-.051q-.008-.225-.014-.446c0-.013,0-.027,0-.04q-.005-.227-.008-.451V32.4q0-.228,0-.454v-.019q0-.23.005-.457s0-.006,0-.009q0-.227.011-.45a27.31,27.31,0,0,1,.007-5.155c.962-9.753,9.8-21.908,24.809-23A32.212,32.212,0,0,1,53.348,15.528S69.221-1.874,86.008.245l.161.021C94.831,1.4,100.71,5.344,104.443,10.19c.164.131.322.267.478.406l.125.113c.062.058.124.116.185.176l.123.12c.061.061.122.122.181.184l.108.115q.2.216.392.443l.034.04c.059.071.117.144.174.217l.1.122q.084.11.166.222l.089.124c.056.078.111.157.165.238l.053.08q.18.272.348.558l.036.06c.053.092.1.185.156.279l.064.118q.075.141.149.286l.054.108q.251.509.472,1.062l.024.059c.046.116.09.234.134.353l.038.1q.065.181.128.366l.021.063q.206.619.382,1.292l.015.056q.055.214.108.435l.02.084q.223.954.391,2.016l.009.055q.04.258.078.524l.007.052q.154,1.112.254,2.346l0,.056q.024.3.044.6c.068.729.1,1.443.1,2.133.006.193.011.39.016.587l0,.166c0,.2.008.4.01.6,0,.062,0,.126,0,.188q.006.588,0,1.2c0,.057,0,.113,0,.171,0,.149,0,.3,0,.453s0,.317-.006.478q0,.2-.007.407-.005.293-.013.592c0,.112-.005.222-.008.335-.008.316-.018.636-.029.961-.331,9.516-10.71,26.112-28.308,25.1S56.8,43.239,56.8,43.239,43.76,58.831,26.862,58.832A27,27,0,0,1,23.236,58.589ZM83.58,42.806c4.9.057,10.91-4.651,12.5-8.888-1-3.84-4.1-7.6-12.255-8.314-7.273-.639-14.538,5.167-18.047,8.48C72.006,41.194,78.408,42.746,83.58,42.806ZM27.3,34.015c7.687-1.194,13.163-6.1,15.866-9.1-2.884-3.42-8.843-8.937-16.6-7.825-8.081,1.158-11.9,5.624-13.162,9.261C14.948,29.922,20.047,35.142,27.3,34.015Z"/>
    </clipPath>
  </defs>
  <g id="Безлим" transform="translate(-0.139 -0.066)">
    <g id="Shape_7_copy_2-2" data-name="Shape 7 copy 2">
      <path id="Shape_7_copy_2-3" data-name="Shape 7 copy 2" d="M23.236,58.589q-.459-.062-.906-.133c-.1-.016-.194-.033-.291-.05-.2-.033-.4-.066-.592-.1-.114-.021-.225-.044-.338-.066-.175-.034-.351-.067-.523-.1-.118-.025-.233-.052-.35-.078-.163-.036-.327-.071-.488-.109-.119-.028-.234-.058-.351-.087-.155-.038-.312-.076-.465-.116-.117-.031-.232-.064-.348-.1-.149-.041-.3-.081-.447-.124-.115-.033-.228-.069-.342-.1-.144-.044-.289-.086-.431-.132-.113-.036-.223-.074-.334-.111-.139-.046-.28-.092-.417-.14-.11-.038-.217-.079-.326-.118-.135-.049-.271-.1-.4-.148-.107-.041-.212-.084-.318-.125-.131-.052-.263-.1-.392-.156-.1-.043-.206-.088-.309-.132-.127-.054-.255-.108-.38-.163-.1-.045-.2-.092-.3-.139-.123-.057-.247-.113-.368-.171-.1-.047-.195-.1-.292-.145-.119-.059-.239-.117-.356-.178-.1-.049-.189-.1-.284-.151-.115-.061-.232-.122-.345-.185-.093-.052-.184-.1-.276-.157-.112-.064-.224-.127-.334-.191-.091-.054-.179-.109-.268-.163-.108-.066-.217-.131-.323-.2-.088-.056-.173-.113-.26-.169-.1-.068-.209-.135-.312-.2-.085-.057-.168-.116-.252-.175-.1-.07-.2-.139-.3-.209-.083-.059-.163-.12-.245-.18-.1-.071-.194-.142-.29-.215s-.159-.124-.238-.186-.187-.146-.279-.22-.154-.128-.231-.191-.18-.149-.268-.224-.149-.131-.224-.2-.173-.152-.257-.228-.145-.135-.217-.2-.166-.154-.246-.232-.141-.139-.211-.208-.158-.156-.236-.235-.137-.143-.2-.214-.151-.158-.225-.238-.133-.146-.2-.22-.144-.16-.215-.241-.128-.15-.192-.226-.138-.161-.2-.242-.125-.154-.187-.231-.131-.162-.194-.244-.121-.158-.181-.237-.124-.163-.184-.245-.117-.162-.175-.243-.117-.163-.175-.245-.114-.166-.17-.249-.111-.163-.165-.245-.11-.17-.164-.255-.1-.163-.155-.244-.107-.174-.159-.262-.1-.162-.146-.243-.1-.179-.154-.268-.092-.161-.137-.242-.1-.183-.149-.274-.086-.159-.128-.239-.1-.187-.144-.281c-.04-.079-.08-.158-.119-.237-.047-.1-.093-.192-.139-.288-.037-.078-.075-.155-.111-.233-.046-.1-.09-.2-.134-.295-.034-.076-.069-.153-.1-.23-.044-.1-.086-.2-.129-.3-.032-.075-.064-.15-.095-.225-.042-.1-.083-.206-.124-.308-.029-.074-.058-.147-.087-.221-.041-.105-.08-.21-.119-.316-.027-.072-.053-.143-.079-.215-.039-.107-.076-.215-.114-.323-.024-.07-.049-.14-.072-.209-.037-.11-.073-.22-.109-.33-.022-.068-.044-.135-.065-.2-.036-.112-.07-.225-.1-.337-.02-.065-.04-.131-.059-.2-.034-.115-.067-.23-.1-.345-.018-.063-.036-.126-.053-.189-.032-.117-.063-.235-.093-.352-.016-.06-.032-.121-.047-.181-.03-.12-.059-.24-.088-.36l-.041-.173Q1.039,39.364,1,39.18c-.012-.055-.024-.109-.036-.164q-.04-.188-.078-.375c-.01-.052-.021-.1-.031-.155Q.816,38.3.782,38.1c-.009-.049-.018-.1-.027-.145q-.035-.2-.067-.39c-.008-.045-.015-.091-.022-.136q-.032-.2-.061-.4l-.019-.126q-.029-.2-.056-.4l-.015-.115q-.026-.206-.05-.411c0-.035-.008-.07-.012-.1q-.024-.21-.044-.418c0-.031-.006-.063-.009-.094q-.021-.213-.038-.424l-.007-.083q-.018-.216-.032-.43l-.005-.072Q.3,34.135.291,33.917l0-.061q-.011-.222-.02-.442l0-.051q-.008-.225-.014-.446c0-.013,0-.027,0-.04q-.005-.227-.008-.451V32.4q0-.228,0-.454v-.019q0-.23.005-.457s0-.006,0-.009q0-.227.011-.45a27.31,27.31,0,0,1,.007-5.155c.962-9.753,9.8-21.908,24.809-23A32.212,32.212,0,0,1,53.348,15.528S69.221-1.874,86.008.245l.161.021C94.831,1.4,100.71,5.344,104.443,10.19c.164.131.322.267.478.406l.125.113c.062.058.124.116.185.176l.123.12c.061.061.122.122.181.184l.108.115q.2.216.392.443l.034.04c.059.071.117.144.174.217l.1.122q.084.11.166.222l.089.124c.056.078.111.157.165.238l.053.08q.18.272.348.558l.036.06c.053.092.1.185.156.279l.064.118q.075.141.149.286l.054.108q.251.509.472,1.062l.024.059c.046.116.09.234.134.353l.038.1q.065.181.128.366l.021.063q.206.619.382,1.292l.015.056q.055.214.108.435l.02.084q.223.954.391,2.016l.009.055q.04.258.078.524l.007.052q.154,1.112.254,2.346l0,.056q.024.3.044.6c.068.729.1,1.443.1,2.133.006.193.011.39.016.587l0,.166c0,.2.008.4.01.6,0,.062,0,.126,0,.188q.006.588,0,1.2c0,.057,0,.113,0,.171,0,.149,0,.3,0,.453s0,.317-.006.478q0,.2-.007.407-.005.293-.013.592c0,.112-.005.222-.008.335-.008.316-.018.636-.029.961-.331,9.516-10.71,26.112-28.308,25.1S56.8,43.239,56.8,43.239,43.76,58.831,26.862,58.832A27,27,0,0,1,23.236,58.589ZM83.58,42.806c4.9.057,10.91-4.651,12.5-8.888-1-3.84-4.1-7.6-12.255-8.314-7.273-.639-14.538,5.167-18.047,8.48C72.006,41.194,78.408,42.746,83.58,42.806ZM27.3,34.015c7.687-1.194,13.163-6.1,15.866-9.1-2.884-3.42-8.843-8.937-16.6-7.825-8.081,1.158-11.9,5.624-13.162,9.261C14.948,29.922,20.047,35.142,27.3,34.015Z"/>
      <g id="Clip" clip-path="url(#clip-path)">
        <path id="Shape_7_copy" data-name="Shape 7 copy" d="M26.862,53.9h0a27.139,27.139,0,0,1-3.623-.243c-1.206-.163-2.385-.379-3.507-.643a31.836,31.836,0,0,1-3.162-.915,26.535,26.535,0,0,1-5.346-2.537,22.6,22.6,0,0,1-7.2-7.148,24.093,24.093,0,0,1-2.092-4.181,26.451,26.451,0,0,1-1.244-4.3,27.792,27.792,0,0,1-.42-8.086A21.216,21.216,0,0,1,.991,22.11,25,25,0,0,1,2.436,18.3,27.163,27.163,0,0,1,4.58,14.578,27.731,27.731,0,0,1,7.4,11.106a27.283,27.283,0,0,1,3.481-3.067A26.677,26.677,0,0,1,15,5.535,27.316,27.316,0,0,1,25.073,2.85c.861-.063,1.728-.095,2.576-.095A32.94,32.94,0,0,1,33.67,3.3,31.52,31.52,0,0,1,38.89,4.751a32.363,32.363,0,0,1,8.031,4.391,33.6,33.6,0,0,1,2.812,2.345c.711.662,1.387,1.35,2.009,2.046a20.822,20.822,0,0,1,1.607,2l0,0c.1-.1.977-1.054,2.447-2.414.91-.842,1.866-1.675,2.841-2.476,1.219-1,2.471-1.957,3.722-2.839a49,49,0,0,1,9.5-5.315A34.179,34.179,0,0,1,77.349.73,26.51,26.51,0,0,1,83.13.066a23.069,23.069,0,0,1,2.878.179c18.417,2.324,24.332,17.315,23.814,26.824a19,19,0,0,1-.612,3.73,27.082,27.082,0,0,1-1.442,4.092,31.609,31.609,0,0,1-2.248,4.189,31.967,31.967,0,0,1-3.03,4.022A29.623,29.623,0,0,1,98.7,46.691a26.615,26.615,0,0,1-4.52,2.892A24.567,24.567,0,0,1,83.04,52.214c-.5,0-1.017-.015-1.526-.044a35.1,35.1,0,0,1-6.114-.886,32,32,0,0,1-5.171-1.706,30.79,30.79,0,0,1-7.669-4.717,30.448,30.448,0,0,1-2.578-2.432c-.642-.682-1.245-1.387-1.792-2.1A18.189,18.189,0,0,1,56.8,38.311l0,0c-.089.1-.906,1.063-2.3,2.434-.863.849-1.777,1.689-2.716,2.5-1.174,1.01-2.39,1.973-3.616,2.863a45.382,45.382,0,0,1-9.5,5.36A34.483,34.483,0,0,1,33,53.233,29.149,29.149,0,0,1,26.862,53.9ZM82.7,20.626a15.1,15.1,0,0,0-3.613.462A20.712,20.712,0,0,0,75.613,22.3,32.014,32.014,0,0,0,69.5,26a45.131,45.131,0,0,0-4.284,3.691c-1.014.99-1.61,1.671-1.616,1.678a38.423,38.423,0,0,0,2.6,3.2,30.926,30.926,0,0,0,2.617,2.563,25.92,25.92,0,0,0,2.61,1.99,22.872,22.872,0,0,0,2.58,1.484,21.85,21.85,0,0,0,9.569,2.2h.088a11.444,11.444,0,0,0,5.175-1.44A17.461,17.461,0,0,0,91.3,39.8a17.881,17.881,0,0,0,2.154-1.925,15.212,15.212,0,0,0,1.272-1.523,11.55,11.55,0,0,0,.968-1.571,7.881,7.881,0,0,0,.6-1.56,5.113,5.113,0,0,0,.174-1.491,10.685,10.685,0,0,0-2.6-6.919,10.071,10.071,0,0,0-1.649-1.46,12.225,12.225,0,0,0-2.18-1.22,16.548,16.548,0,0,0-2.777-.914,23.943,23.943,0,0,0-3.44-.541c-.367-.032-.744-.049-1.119-.049ZM28.6,12.015a14.349,14.349,0,0,0-2.028.145,19.908,19.908,0,0,0-7.25,2.4,14.9,14.9,0,0,0-2.495,1.819A13.3,13.3,0,0,0,15,18.408a12.133,12.133,0,0,0-1.1,1.82,10.709,10.709,0,0,0-.676,1.761,7.046,7.046,0,0,0-.261,2.937,8.082,8.082,0,0,0,1.13,2.742A14.142,14.142,0,0,0,16.634,30.7a13.718,13.718,0,0,0,3.787,2.457,12.282,12.282,0,0,0,4.887,1.012,13.047,13.047,0,0,0,2-.156,23.219,23.219,0,0,0,4-1,25.252,25.252,0,0,0,3.532-1.536,29.39,29.39,0,0,0,5.583-3.862,32.335,32.335,0,0,0,3.472-3.534c.776-.926,1.19-1.541,1.194-1.547s-.421-.675-1.175-1.645a29.73,29.73,0,0,0-3.332-3.618,22.358,22.358,0,0,0-5.2-3.618,16.623,16.623,0,0,0-3.209-1.192A14.488,14.488,0,0,0,28.6,12.015Z" fill="#ffb612"/>
        <path id="Rectangle_1_copy_4" data-name="Rectangle 1 copy 4" d="M-33.039,43.563l164.624-.306.025,11.983-164.624.306ZM-30.391,21,134.233,20.7l.025,11.983-164.624.306Zm-.96-22.054,164.624-.306.025,11.983-164.624.306Z"/>
        <path id="Shape_2" data-name="Shape 2" d="M52.517,42.776c-.829.645,5.333-6.013,14.729-13.123,4.969-3.76,3.349,1.443,3.349,1.443L54.632,45.51Z"/>
        <path id="Shape_2_copy_2" data-name="Shape 2 copy 2" d="M36.545,26.067c-.829.645,5.333-6.013,14.729-13.123,4.969-3.76,4.191.461,4.191.461l-16.8,15.4Z"/>
      </g>
    </g>
  </g>
</svg>
