<svg xmlns="http://www.w3.org/2000/svg" width="79" height="84.995" viewBox="0 0 79 84.995">
  <path id="Shape_1" data-name="Shape 1" d="M391.531,770.8l-5.28-7.524L381.2,770.8h-2.916l6.587-9.518-6.286-8.936h3.494l4.577,6.51,4.349-6.51h2.817l-5.81,8.482L395,770.8Zm-57.9,0,10.007-18.456h6.135v15.83l4.276-.075-1.961,2.7Zm4.1-2.5h9.181v-13.71H345Zm32.614,2.5v-8.558h-9.327v8.558h-2.893V752.34h2.893v7.37h9.327v-7.37h2.916v18.454Zm-53.181,0V752.34h7.115a11.247,11.247,0,0,1,2.841.278,4.716,4.716,0,0,1,.981,8.509v.124a4.432,4.432,0,0,1,2.616,4.192c0,2.727-1.484,4.468-3.372,5a11.764,11.764,0,0,1-3.467.353Zm2.918-2.422H324.6a4.646,4.646,0,0,0,1.508-.2,2.607,2.607,0,0,0,1.559-2.727,2.417,2.417,0,0,0-1.433-2.423,4.274,4.274,0,0,0-1.586-.254h-4.574Zm0-8.032H324.4a3.347,3.347,0,0,0,1.761-.377,2.725,2.725,0,0,0,1.233-2.55,2.338,2.338,0,0,0-1.485-2.4,4.333,4.333,0,0,0-1.633-.227h-4.2Zm68.616-11.889V718.235h-8.45v30.217h-4.124V718.235h-8.675v30.217h-4.149v-20.5a12.5,12.5,0,0,0-.427-3.859,8.873,8.873,0,0,0-3.919-5.3,8.275,8.275,0,0,0-3.723-.783,8.051,8.051,0,0,0-4.25,1.084,9.049,9.049,0,0,0-3.467,5.2,13.038,13.038,0,0,0-.353,3.659v20.5h-4.149V718.235H334.33v30.217h-4.148V718.235h-8.4v30.217H317.66V718.235H316V715h78.472v3.231h-1.66v30.217ZM316,712.33V709.1h78.47v3.23Zm72.363-8.456,2.389-3.23,2.414,3.23-2.414,3.233Zm-71.054,0,2.417-3.23,2.389,3.23-2.389,3.233Zm58.784,2.982,1.535-3.132a1.533,1.533,0,0,1-1.057-1.49,1.6,1.6,0,0,1,3.2,0,1.607,1.607,0,0,1-1.081,1.514l1.533,3.108Zm-45.835,0,1.534-3.108a1.607,1.607,0,0,1-1.082-1.514,1.6,1.6,0,0,1,3.194,0,1.533,1.533,0,0,1-1.057,1.49l1.532,3.132Zm12.752-.005v-3.23h24.44v3.23Zm7.26-5.9v-3.23h9.9v3.23Zm2.263-9.271h5.381l-2.691,3.637Zm-.954-2.669V685.8h7.29v3.21Z" transform="translate(-316 -685.8)"/>
</svg>
