<?xml version="1.0" encoding="UTF-8"?>
<svg width="243px" height="35px" viewBox="0 0 243 35" version="1.1" xmlns="http://www.w3.org/2000/svg" xmlns:xlink="http://www.w3.org/1999/xlink">
    <!-- Generator: Sketch 51.2 (57519) - http://www.bohemiancoding.com/sketch -->
    <title>youtube-music</title>
    <desc>Created with Sketch.</desc>
    <defs></defs>
    <g id="Page-1" stroke="none" stroke-width="1" fill="none" fill-rule="evenodd">
        <g id="youtube-music" transform="translate(0.000000, -21.000000)">
            <path d="M48.958,26.465 C48.3770385,24.3082702 46.6925984,22.6234492 44.536,22.042 C40.638,21 25,21 25,21 C25,21 9.37,21 5.464,22.042 C3.30740157,22.6234492 1.62296151,24.3082702 1.042,26.465 C0,30.363 0,38.5 0,38.5 C0,38.5 0,46.637 1.042,50.535 C1.62296151,52.6917298 3.30740157,54.3765508 5.464,54.958 C9.37,56 25,56 25,56 C25,56 40.638,56 44.536,54.958 C46.6925984,54.3765508 48.3770385,52.6917298 48.958,50.535 C50,46.637 50,38.5 50,38.5 C50,38.5 50,30.363 48.958,26.465 Z" id="Shape" fill="#FF0000" fill-rule="nonzero"></path>
            <path d="M70.698,49.945 C70.279,48.553 70.063,46.707 70.063,44.395 L70.063,41.252 C70.063,38.918 70.305,37.047 70.788,35.632 C71.271,34.218 72.028,33.188 73.048,32.544 C74.07,31.899 75.415,31.569 77.079,31.569 C78.72,31.569 80.032,31.899 81.022,32.559 C82.012,33.22 82.735,34.25 83.195,35.647 C83.653,37.047 83.879,38.917 83.879,41.243 L83.879,44.386 C83.879,46.697 83.653,48.551 83.211,49.951 C82.768,51.35 82.043,52.38 81.037,53.023 C80.04,53.669 78.679,53.998 76.967,53.998 C75.212,54.008 73.828,53.678 72.831,53.018 C71.833,52.357 71.118,51.337 70.698,49.945 Z M78.438,49.623 C78.71,48.915 78.857,47.761 78.857,46.166 L78.857,39.415 C78.857,37.86 78.72,36.727 78.437,36.003 C78.165,35.288 77.674,34.926 76.974,34.926 C76.298,34.926 75.824,35.288 75.542,36.003 C75.269,36.719 75.122,37.858 75.122,39.415 L75.122,46.165 C75.122,47.769 75.252,48.925 75.516,49.623 C75.781,50.331 76.265,50.683 76.964,50.683 C77.674,50.683 78.157,50.329 78.438,49.623 Z M149.641,44.451 L149.641,45.543 C149.641,46.935 149.682,47.973 149.77,48.671 C149.85,49.362 150.027,49.874 150.292,50.189 C150.557,50.503 150.968,50.669 151.524,50.669 C152.272,50.669 152.787,50.385 153.06,49.819 C153.332,49.254 153.486,48.309 153.51,46.99 L157.815,47.234 C157.838,47.422 157.848,47.681 157.848,48.013 C157.848,50.017 157.285,51.51 156.166,52.5 C155.047,53.49 153.463,53.985 151.411,53.985 C148.949,53.985 147.226,53.231 146.238,51.721 C145.248,50.211 144.758,47.885 144.758,44.727 L144.758,40.946 C144.758,37.692 145.272,35.326 146.293,33.826 C147.314,32.333 149.068,31.585 151.555,31.585 C153.268,31.585 154.58,31.891 155.498,32.505 C156.416,33.117 157.058,34.069 157.437,35.365 C157.807,36.662 158,38.454 158,40.735 L158,44.445 L149.641,44.445 L149.641,44.451 Z M150.276,35.335 C150.027,35.642 149.857,36.145 149.77,36.835 C149.682,37.526 149.641,38.589 149.641,39.995 L149.641,41.551 L153.293,41.551 L153.293,39.996 C153.293,38.604 153.245,37.551 153.149,36.836 C153.052,36.12 152.876,35.609 152.627,35.318 C152.377,35.027 151.984,34.878 151.452,34.878 C150.92,34.871 150.526,35.028 150.276,35.335 Z M60.681,44.043 L55,24.01 L59.956,24.01 L61.944,33.087 C62.451,35.327 62.821,37.229 63.063,38.807 L63.207,38.807 C63.377,37.677 63.747,35.783 64.326,33.117 L66.386,24 L71.342,24 L65.596,44.041 L65.596,53.654 L60.681,53.654 L60.681,44.044 L60.681,44.043 Z M99.993,31.994 L99.993,53.646 L96.09,53.646 L95.655,50.998 L95.55,50.998 C94.489,53.002 92.897,54 90.781,54 C89.309,54 88.221,53.528 87.521,52.585 C86.821,51.643 86.475,50.173 86.475,48.169 L86.475,31.994 L91.462,31.994 L91.462,47.893 C91.462,48.86 91.567,49.551 91.784,49.96 C92,50.37 92.363,50.58 92.869,50.58 C93.304,50.58 93.723,50.455 94.117,50.196 C94.51,49.937 94.808,49.606 95.001,49.206 L95.001,31.994 L99.993,31.994 Z M125.593,31.994 L125.593,53.646 L121.692,53.646 L121.257,50.998 L121.152,50.998 C120.09,53.002 118.498,54 116.38,54 C114.909,54 113.821,53.528 113.121,52.585 C112.421,51.643 112.075,50.173 112.075,48.169 L112.075,31.994 L117.062,31.994 L117.062,47.893 C117.062,48.86 117.167,49.551 117.384,49.96 C117.6,50.37 117.962,50.58 118.469,50.58 C118.904,50.58 119.323,50.455 119.717,50.196 C120.11,49.937 120.408,49.606 120.601,49.206 L120.601,31.994 L125.592,31.994 L125.593,31.994 Z" id="Shape" fill="#000000" fill-rule="nonzero"></path>
            <polygon id="Path" fill="#FFFFFF" fill-rule="nonzero" points="20 46 32 38.5 20 31"></polygon>
            <path d="M114.665,27.102 L109.753,27.102 L109.753,53.275 L104.913,53.275 L104.913,27.102 L100,27.102 L100,23.11 L114.658,23.11 L114.658,27.102 L114.665,27.102 Z M142.966,34.765 C142.663,33.374 142.184,32.366 141.516,31.742 C140.846,31.118 139.928,30.807 138.757,30.807 C137.847,30.807 137.003,31.062 136.213,31.582 C135.434317,32.0844336 134.804206,32.7860146 134.388,33.614 L134.348,33.614 L134.348,22 L129.578,22 L129.578,53.283 L133.661,53.283 L134.164,51.196 L134.268,51.196 C134.65,51.94 135.224,52.524 135.991,52.956 C136.756,53.388 137.602,53.603 138.535,53.603 C140.21,53.603 141.438,52.828 142.226,51.283 C143.016,49.739 143.406,47.325 143.406,44.037 L143.406,40.549 C143.412,38.084 143.262,36.156 142.966,34.765 Z M138.429,43.755 C138.429,45.364 138.365,46.62 138.229,47.532 C138.102,48.445 137.879,49.092 137.567,49.476 C137.265,49.856 136.8,50.07 136.315,50.051 C135.491925,50.0668198 134.728825,49.6219998 134.337,48.898 L134.337,36.38 C134.506,35.78 134.791,35.293 135.199,34.908 C135.607,34.524 136.045,34.332 136.522,34.332 C137.024,34.332 137.415,34.532 137.687,34.923 C137.957,35.314 138.149,35.987 138.261,36.915 C138.365,37.851 138.421,39.178 138.421,40.906 L138.421,43.755 L138.429,43.755 L138.429,43.757 L138.429,43.755 Z M172.102,23.11 L165.352,23.11 L165.352,53.603 L169.739,53.603 L169.739,28.838 L174.576,53.603 L178.625,53.603 L183.686,28.274 L183.686,53.634 L187.961,53.634 L187.961,23.11 L180.987,23.11 L176.657,47.228 L172.102,23.11 Z M200.895,53.634 L204.382,53.634 L204.382,31.237 L199.657,31.237 L199.657,48.92 C198.869,50.275 196.058,51.403 196.058,48.696 L196.058,31.239 L191.333,31.239 L191.333,49.375 C191.333,53.211 196.508,56.596 200.107,50.842 L200.895,53.634 Z M222.603,31.237 L226.99,31.237 L226.99,53.634 L222.603,53.634 L222.603,31.237 Z M224.91,28.613 C223.386743,28.6069474 222.154639,27.371268 222.153,25.848 L222.153,25.172 C222.155186,23.6489585 223.386971,22.4135988 224.91,22.407 C226.432638,22.414147 227.663817,23.6493468 227.666,25.172 L227.666,25.848 C227.663271,27.3704271 226.43241,28.6053079 224.91,28.613 Z M215.518,38.373 L219.343,38.373 C219.455,36.511 219.567,30.87 213.606,30.87 C208.656,30.87 207.306,34.029 207.306,36.85 C207.306,39.671 208.732,41.663 212.781,44.823 C216.231,46.629 216.38,50.766 213.531,50.766 C212.181,50.766 211.355,49.863 211.355,48.584 L211.355,46.554 L207.307,46.554 L207.307,48.884 C207.307,50.915 208.657,54 213.38,54 C218.105,54 219.754,51.367 219.754,47.305 C219.754,43.245 211.207,39.257 211.207,36.475 C211.207,33.24 215.462,33.597 215.462,35.947 L215.518,38.373 Z M235.051,36.548 C234.601,41.663 234.976,45.573 235.126,48.055 C235.331,51.435 238.876,51.44 238.876,47.98 L238.876,45.498 L243,45.498 C243,50.01 241.426,53.696 237,53.696 C231.825,53.696 230.326,50.01 230.326,46.098 L230.326,39.555 C230.326,34.29 232.576,30.755 236.85,30.755 C242.548,30.755 242.699,34.815 242.699,36.697 L242.699,39.179 L238.874,39.479 L238.874,36.47 C238.876,34.366 236.251,32.486 235.051,36.548 Z" id="Shape" fill="#000000" fill-rule="nonzero"></path>
            <polygon id="Shape" points="0 0 243 0 243 78 0 78"></polygon>
        </g>
    </g>
</svg>